<?xml version="1.0" standalone="no"?>
<!DOCTYPE svg PUBLIC "-//W3C//DTD SVG 20010904//EN"
 "http://www.w3.org/TR/2001/REC-SVG-20010904/DTD/svg10.dtd">
<svg version="1.0" xmlns="http://www.w3.org/2000/svg"
 width="600.000000pt" height="600.000000pt" viewBox="0 0 600.000000 600.000000"
 preserveAspectRatio="xMidYMid meet">
<metadata>
Created by potrace 1.11, written by Peter Selinger 2001-2013
</metadata>
<g transform="translate(0.000000,600.000000) scale(0.100000,-0.100000)"
fill="#000000" stroke="none">
<path d="M3008 5816 c-1 -2 -68 -6 -148 -10 -155 -6 -164 -7 -340 -36 -869
-142 -1651 -727 -2044 -1529 -102 -208 -201 -497 -231 -676 -3 -16 -10 -52
-15 -80 -9 -49 -12 -67 -27 -177 -10 -71 -10 -526 0 -608 8 -67 23 -166 32
-210 3 -14 10 -51 15 -82 6 -31 24 -104 40 -162 246 -876 901 -1581 1754
-1891 106 -38 304 -95 385 -110 227 -43 318 -50 601 -49 239 1 315 7 483 39
15 3 37 7 50 9 12 2 45 10 72 16 28 6 61 14 74 16 60 12 327 106 430 152 326
146 588 328 852 591 269 270 479 585 610 913 22 57 47 119 55 138 38 94 96
329 120 484 3 21 8 48 10 60 18 89 26 574 11 691 -28 213 -70 408 -127 580
-22 66 -44 129 -49 140 -6 11 -26 58 -46 105 -98 229 -282 523 -435 695 -194
219 -352 360 -560 499 -159 107 -186 123 -355 206 -197 96 -472 191 -653 225
-82 15 -144 25 -187 30 -27 4 -61 8 -75 11 -14 2 -81 7 -150 10 -69 3 -130 7
-137 9 -6 2 -13 2 -15 1z m-495 -1488 c9 -18 32 -60 52 -93 19 -33 47 -82 62
-110 15 -27 32 -58 38 -67 9 -15 106 -185 155 -273 10 -16 30 -52 47 -80 16
-27 32 -57 36 -65 4 -8 17 -31 28 -50 12 -19 80 -138 152 -265 331 -583 479
-841 485 -847 4 -4 7 418 6 938 l-1 944 265 -2 265 -3 -1 -1330 c0 -731 -1
-1342 -1 -1357 l-1 -28 -283 0 -283 0 -108 188 c-59 103 -111 194 -117 202 -5
8 -60 105 -123 215 -62 110 -191 335 -286 500 -194 338 -183 318 -345 603 -66
115 -122 208 -124 207 -2 -2 -3 -434 -3 -959 l-1 -956 -263 0 c-204 0 -264 3
-265 13 -1 16 -1 2667 0 2690 1 16 22 17 299 17 l298 0 17 -32z"/>
</g>
</svg>
